<?xml version="1.0" encoding="utf-8"?>
<!-- Generator: Adobe Illustrator 15.0.0, SVG Export Plug-In . SVG Version: 6.00 Build 0)  -->
<!DOCTYPE svg PUBLIC "-//W3C//DTD SVG 1.0//EN" "http://www.w3.org/TR/2001/REC-SVG-20010904/DTD/svg10.dtd">
<svg version="1.0" id="Layer_1" xmlns="http://www.w3.org/2000/svg" xmlns:xlink="http://www.w3.org/1999/xlink" x="0px" y="0px"
	 width="400px" height="400px" viewBox="0 -352 400 400" enable-background="new 0 -352 400 400" xml:space="preserve">
<g>
	<path fill="#333333" d="M200-327c-96.65,0-175,78.357-175,175c0,96.65,78.35,175,175,175s175-78.343,175-175
		C375-248.643,296.65-327,200-327z"/>
	<path fill="#FFFFFF" d="M199.998,3C114.395,3,45-66.393,45-151.992C45-237.584,114.395-307,199.998-307
		C285.592-307,355-237.603,355-152C355-66.393,285.602,3,199.998,3z"/>
	<path fill-opacity="0.1" d="M353.986-134.28L234.306-245L165.5-172.5l46.333,36L100.047-68.625l76.567,69.87
		C184.241,2.399,192.049,3,199.998,3C279.608,3,345.191-57.02,353.986-134.28z"/>
	<g>
		<circle fill="#757575" cx="200" cy="-208.583" r="50"/>
		<path fill="#757575" d="M200-143.583c-76.248,0-100,49.999-100,49.999v25h200v-25C300-93.583,276.25-143.583,200-143.583z"/>
	</g>
</g>
</svg>
